<?xml version="1.0" encoding="iso-8859-1"?>
<!-- Uploaded to: SVG Repo, www.svgrepo.com, Generator: SVG Repo Mixer Tools -->
<!DOCTYPE svg PUBLIC "-//W3C//DTD SVG 1.1//EN" "http://www.w3.org/Graphics/SVG/1.1/DTD/svg11.dtd">
<svg fill="#000000" version="1.1" id="Capa_1" xmlns="http://www.w3.org/2000/svg" xmlns:xlink="http://www.w3.org/1999/xlink" 
	 width="800px" height="800px" viewBox="0 0 517.5 517.5" xml:space="preserve"
	>
<g>
	<path d="M258.75,0C116.079,0,0,116.07,0,258.75C0,401.43,116.079,517.5,258.75,517.5c142.674,0,258.75-116.07,258.75-258.75
		C517.5,116.07,401.424,0,258.75,0z M258.75,495.245c-130.397,0-236.496-106.092-236.496-236.495S128.353,22.254,258.75,22.254
		c130.403,0,236.495,106.093,236.495,236.496S389.153,495.245,258.75,495.245z M283.788,233.073
		c0,23.052-18.684,41.742-41.736,41.742c-23.049,0-41.733-18.69-41.733-41.742c0-23.052,18.684-41.732,41.733-41.732
		C265.104,191.341,283.788,210.021,283.788,233.073z M197.757,165.363c-22.177,6.265-45.241-6.626-51.506-28.809
		c-6.271-22.189,6.626-45.244,28.809-51.51c22.183-6.268,45.244,6.623,51.509,28.807C232.84,136.039,219.94,159.095,197.757,165.363
		z M161.37,230.925c0,23.055-18.684,41.733-41.733,41.733c-23.049,0-41.733-18.678-41.733-41.733
		c0-23.055,18.684-41.733,41.733-41.733C142.686,189.192,161.37,207.876,161.37,230.925z"/>
</g>
</svg>